<mxfile host="app.diagrams.net" agent="Mozilla/5.0 (Windows NT 10.0; Win64; x64) AppleWebKit/537.36 (KHTML, like Gecko) Chrome/136.0.0.0 Safari/537.36 Edg/136.0.0.0" version="27.0.6">
  <diagram name="Página-1" id="vRwaQ3B-kGVNpFDtIDS9">
    <mxGraphModel dx="883" dy="425" grid="1" gridSize="10" guides="1" tooltips="1" connect="1" arrows="1" fold="1" page="1" pageScale="1" pageWidth="827" pageHeight="1169" math="0" shadow="0">
      <root>
        <mxCell id="0" />
        <mxCell id="1" parent="0" />
        <mxCell id="J4VcDI_KgW3uV5TBByR3-21" value="" style="rounded=1;whiteSpace=wrap;html=1;fillColor=#E1F9FF;" vertex="1" parent="1">
          <mxGeometry x="13" width="400" height="560" as="geometry" />
        </mxCell>
        <mxCell id="J4VcDI_KgW3uV5TBByR3-20" value="" style="rounded=1;whiteSpace=wrap;html=1;fillColor=#FFECE3;" vertex="1" parent="1">
          <mxGeometry x="420" width="410" height="560" as="geometry" />
        </mxCell>
        <mxCell id="J4VcDI_KgW3uV5TBByR3-3" value="" style="group" vertex="1" connectable="0" parent="1">
          <mxGeometry x="610" y="60" width="180" height="350" as="geometry" />
        </mxCell>
        <mxCell id="J4VcDI_KgW3uV5TBByR3-1" value="" style="rounded=1;whiteSpace=wrap;html=1;" vertex="1" parent="J4VcDI_KgW3uV5TBByR3-3">
          <mxGeometry width="180" height="350" as="geometry" />
        </mxCell>
        <mxCell id="J4VcDI_KgW3uV5TBByR3-2" value="APK Android do React rodando no celular" style="rounded=1;whiteSpace=wrap;html=1;" vertex="1" parent="J4VcDI_KgW3uV5TBByR3-3">
          <mxGeometry x="10" y="25" width="160" height="300" as="geometry" />
        </mxCell>
        <mxCell id="J4VcDI_KgW3uV5TBByR3-4" value="Desenvolvedor" style="shape=umlActor;verticalLabelPosition=bottom;verticalAlign=top;html=1;outlineConnect=0;" vertex="1" parent="1">
          <mxGeometry x="40" y="130" width="70" height="120" as="geometry" />
        </mxCell>
        <mxCell id="J4VcDI_KgW3uV5TBByR3-9" value="" style="group" vertex="1" connectable="0" parent="1">
          <mxGeometry x="130" y="100" width="310" height="190" as="geometry" />
        </mxCell>
        <mxCell id="J4VcDI_KgW3uV5TBByR3-7" value="" style="rounded=1;whiteSpace=wrap;html=1;" vertex="1" parent="J4VcDI_KgW3uV5TBByR3-9">
          <mxGeometry width="170" height="160" as="geometry" />
        </mxCell>
        <mxCell id="J4VcDI_KgW3uV5TBByR3-8" value="VS Code escrever codigos em Javasrcipt/Typescript para React Native" style="rounded=1;whiteSpace=wrap;html=1;" vertex="1" parent="J4VcDI_KgW3uV5TBByR3-9">
          <mxGeometry x="10" y="10" width="150" height="140" as="geometry" />
        </mxCell>
        <mxCell id="J4VcDI_KgW3uV5TBByR3-13" value="Servidor de arquivos chamado Metro :8081" style="rounded=1;whiteSpace=wrap;html=1;" vertex="1" parent="J4VcDI_KgW3uV5TBByR3-9">
          <mxGeometry x="170" y="60" width="120" height="120" as="geometry" />
        </mxCell>
        <mxCell id="J4VcDI_KgW3uV5TBByR3-11" value="/src&lt;div&gt;&amp;nbsp; &amp;nbsp;Arquivos Javascript&lt;/div&gt;&lt;div&gt;&amp;nbsp; &amp;nbsp;Arquivos Typescript&lt;/div&gt;&lt;div&gt;&amp;nbsp; &amp;nbsp;Babel&lt;/div&gt;&lt;div&gt;&lt;div&gt;/android&lt;/div&gt;&lt;div&gt;&lt;span style=&quot;background-color: transparent; color: light-dark(rgb(0, 0, 0), rgb(255, 255, 255));&quot;&gt;&amp;nbsp; &amp;nbsp;Projeto de App Android feito em Kotlin para rodar o projeto React Native&lt;/span&gt;&lt;/div&gt;&lt;div&gt;&lt;span style=&quot;background-color: transparent; color: light-dark(rgb(0, 0, 0), rgb(255, 255, 255));&quot;&gt;/ios&lt;/span&gt;&lt;/div&gt;&lt;div&gt;&amp;nbsp; &amp;nbsp;Projeto de App Android feito em Swift para rodar o projeto React Native&lt;span style=&quot;background-color: transparent; color: light-dark(rgb(0, 0, 0), rgb(255, 255, 255));&quot;&gt;&lt;/span&gt;&lt;/div&gt;&lt;/div&gt;" style="rounded=0;whiteSpace=wrap;html=1;align=left;" vertex="1" parent="1">
          <mxGeometry x="130" y="280" width="170" height="260" as="geometry" />
        </mxCell>
        <mxCell id="J4VcDI_KgW3uV5TBByR3-14" value="" style="endArrow=classic;html=1;rounded=0;exitX=0.993;exitY=0.12;exitDx=0;exitDy=0;entryX=-0.009;entryY=0.179;entryDx=0;entryDy=0;entryPerimeter=0;exitPerimeter=0;" edge="1" parent="1" source="J4VcDI_KgW3uV5TBByR3-7" target="J4VcDI_KgW3uV5TBByR3-1">
          <mxGeometry width="50" height="50" relative="1" as="geometry">
            <mxPoint x="350" y="260" as="sourcePoint" />
            <mxPoint x="400" y="210" as="targetPoint" />
          </mxGeometry>
        </mxCell>
        <mxCell id="J4VcDI_KgW3uV5TBByR3-15" value="Envia sinal para o celular via &lt;b&gt;adb&lt;/b&gt;&lt;div&gt;neste sinal vai um pedido para instalar o aplicativo&amp;nbsp;&lt;/div&gt;&lt;div&gt;APK do aplicativo Android&lt;/div&gt;" style="edgeLabel;html=1;align=center;verticalAlign=middle;resizable=0;points=[];" vertex="1" connectable="0" parent="J4VcDI_KgW3uV5TBByR3-14">
          <mxGeometry x="0.2325" y="-1" relative="1" as="geometry">
            <mxPoint x="-32" y="16" as="offset" />
          </mxGeometry>
        </mxCell>
        <mxCell id="J4VcDI_KgW3uV5TBByR3-12" value="export default const App = () =&amp;gt;&amp;nbsp;&lt;div&gt;&amp;lt;View&amp;gt;&lt;/div&gt;&lt;div&gt;&amp;nbsp;&amp;lt;Text&amp;gt; Hello World&amp;nbsp; 2&amp;lt;/Text&amp;gt;&amp;nbsp;&lt;/div&gt;&lt;div&gt;&amp;lt;/View&amp;gt;&lt;/div&gt;" style="rounded=0;whiteSpace=wrap;html=1;align=left;" vertex="1" parent="1">
          <mxGeometry x="130" y="30" width="197" height="60" as="geometry" />
        </mxCell>
        <mxCell id="J4VcDI_KgW3uV5TBByR3-16" value="" style="endArrow=classic;html=1;rounded=0;exitX=0.015;exitY=0.37;exitDx=0;exitDy=0;exitPerimeter=0;entryX=1;entryY=0.25;entryDx=0;entryDy=0;" edge="1" parent="1" source="J4VcDI_KgW3uV5TBByR3-1" target="J4VcDI_KgW3uV5TBByR3-13">
          <mxGeometry width="50" height="50" relative="1" as="geometry">
            <mxPoint x="350" y="260" as="sourcePoint" />
            <mxPoint x="400" y="210" as="targetPoint" />
          </mxGeometry>
        </mxCell>
        <mxCell id="J4VcDI_KgW3uV5TBByR3-17" value="Requisição para pegar o aplicativo&lt;div&gt;em Javascript&amp;nbsp; (React Native)&lt;/div&gt;" style="edgeLabel;html=1;align=center;verticalAlign=middle;resizable=0;points=[];" vertex="1" connectable="0" parent="J4VcDI_KgW3uV5TBByR3-16">
          <mxGeometry x="-0.1732" y="2" relative="1" as="geometry">
            <mxPoint as="offset" />
          </mxGeometry>
        </mxCell>
        <mxCell id="J4VcDI_KgW3uV5TBByR3-18" value="" style="endArrow=classic;html=1;rounded=0;exitX=1;exitY=0.75;exitDx=0;exitDy=0;" edge="1" parent="1" source="J4VcDI_KgW3uV5TBByR3-13">
          <mxGeometry width="50" height="50" relative="1" as="geometry">
            <mxPoint x="480" y="270" as="sourcePoint" />
            <mxPoint x="610" y="250" as="targetPoint" />
          </mxGeometry>
        </mxCell>
        <mxCell id="J4VcDI_KgW3uV5TBByR3-19" value="Compacta todo código&lt;div&gt;React Native&lt;div&gt;em um unico&amp;nbsp;&lt;/div&gt;&lt;div&gt;arquivo bundle.js&lt;/div&gt;&lt;/div&gt;&lt;div&gt;e envia o arquivo&lt;/div&gt;" style="edgeLabel;html=1;align=center;verticalAlign=middle;resizable=0;points=[];" vertex="1" connectable="0" parent="J4VcDI_KgW3uV5TBByR3-18">
          <mxGeometry x="0.1978" y="1" relative="1" as="geometry">
            <mxPoint as="offset" />
          </mxGeometry>
        </mxCell>
        <mxCell id="J4VcDI_KgW3uV5TBByR3-22" value="Rede do Laboratório da FIAP" style="text;html=1;align=center;verticalAlign=middle;whiteSpace=wrap;rounded=0;" vertex="1" parent="1">
          <mxGeometry x="90" width="260" height="30" as="geometry" />
        </mxCell>
        <mxCell id="J4VcDI_KgW3uV5TBByR3-23" value="Rede do WIFI da FIAP" style="text;html=1;align=center;verticalAlign=middle;whiteSpace=wrap;rounded=0;" vertex="1" parent="1">
          <mxGeometry x="495" y="10" width="260" height="20" as="geometry" />
        </mxCell>
      </root>
    </mxGraphModel>
  </diagram>
</mxfile>
